<svg id="Layer_1" data-name="Layer 1" xmlns="http://www.w3.org/2000/svg" viewBox="0 0 213 406.98"><defs><style>.cls-1{fill:none;stroke:#FFF;stroke-miterlimit:10;stroke-width:4px;}</style></defs><text x="-256" y="-32.02"/><path d="M444.14,392.42c-1.14-1-2.24-2.07-3.33-3.16a7.26,7.26,0,0,1-2.29-4L426,261.94c-.15-1.5.72-3.21,2.63-5.13.54-.55,1.32-1.31,2.35-2.28a1.87,1.87,0,0,0,.58-1.33c0-.89-.69-1.33-2.06-1.32-.39,0-1.56.11-3.52.32a47,47,0,0,1-5.14.34c-1,0-3.23-.15-6.61-.48-.68-.06-1.51-.09-2.49-.08s-1.62.35-1.61,1a2.53,2.53,0,0,0,.6,1.43c.73.82,1.45,1.6,2.14,2.35a12.48,12.48,0,0,1,1.4,1.73,4.52,4.52,0,0,1,.75,2.35,5.45,5.45,0,0,1-1.16,3.19L389.93,301.7q-.15,0-5.85-8-6.45-9.08-11.26-16.64-6.22-9.91-7.35-14.2a4.4,4.4,0,0,1-.15-.93,5.84,5.84,0,0,1,1.95-3.9l2.82-3.31a2.49,2.49,0,0,0,.5-1.38c0-.78-.57-1.17-1.69-1.17-1.6.22-3,.38-4.23.49s-2.82.17-4.82.18a56.26,56.26,0,0,1-5.77-.28c-2.05-.19-3.24-.29-3.58-.28-.87,0-1.31.41-1.31,1.23a2.14,2.14,0,0,0,.45,1.23c1.08,1.16,2.15,2.28,3.23,3.36q2.06,2.36,1.92,4.2l-3.58,37.45L350,312.2l-7,73.59a7.6,7.6,0,0,1-2,4c-1,1-1.92,2-2.85,3a3.34,3.34,0,0,0-.87,1.92c0,.74.55,1.1,1.62,1.1,1.62-.15,3.05-.29,4.29-.44a48.34,48.34,0,0,1,5-.23c1,0,2.61.11,4.89.34a26.36,26.36,0,0,0,4.07.23c.88,0,1.32-.38,1.32-1.13a2.73,2.73,0,0,0-.6-1.54c-1.13-1.09-2.24-2.2-3.32-3.36q-2-2.14-1.86-4l6.61-69.06.47-4.92,3.54-37q1.22,5,6.05,14.68t13,23.14A45.58,45.58,0,0,0,375,336.83a36.13,36.13,0,0,0,3.84,16.89q4.07,7.66,10.39,7.64t10.52-7.95a37.19,37.19,0,0,0,3.72-17.35,47.87,47.87,0,0,0-3.1-15.87,58.31,58.31,0,0,0-6.74-13.39l23.42-37.23,11.78,115.76a5.85,5.85,0,0,1-1.51,4q-.88,1.14-2.7,3.4a2.69,2.69,0,0,0-.58,1.54c0,.75.54,1.12,1.62,1.12,1.47-.15,2.78-.29,3.92-.43a41.34,41.34,0,0,1,4.59-.23q1.54,0,6.61.47c.68.07,1.51.1,2.49.1,1.17,0,1.76-.39,1.76-1.14A2.66,2.66,0,0,0,444.14,392.42ZM395.7,337.74a27.36,27.36,0,0,1-1.78,10.57c-1.35,3.36-3.23,5-5.62,5.05-2.69,0-4.8-1.82-6.34-5.5a30.46,30.46,0,0,1-2-11.46,27.15,27.15,0,0,1,2.14-10.67,31.43,31.43,0,0,1,4.51-7.61,40.2,40.2,0,0,1,5.84,8.16A24.87,24.87,0,0,1,395.7,337.74Z" transform="translate(-256 -32.02)"/><path d="M369.41,235.31a2,2,0,0,0-1.41-.46,5.58,5.58,0,0,0-2.43.71,8.34,8.34,0,0,0-1.09.66l-.93.56c-.06-.56-.12-1.11-.19-1.64a4.83,4.83,0,0,1-.05-.53,3.85,3.85,0,0,1,.44-1.84,6.17,6.17,0,0,1,4.06-3.57c.2,0,.54-.07.56.18a4.85,4.85,0,0,1-.59,2.1,8.39,8.39,0,0,1-.57,1.06,4.81,4.81,0,0,1-.4.52,2.4,2.4,0,0,0-.18.26c-.05.1-.06.3.11.14a6.5,6.5,0,0,0,1.25-1.63,4.6,4.6,0,0,0,.58-2.07,1.38,1.38,0,0,0-.9-1.43,2.75,2.75,0,0,0-1.49,0,6.53,6.53,0,0,0-2.29.91c-.78.46-1.81,1.14-3.08,2s-2.1,1.46-2.89,1.95a15.94,15.94,0,0,1-2.39,1.24,5.91,5.91,0,0,1-4.43.12,2.7,2.7,0,0,1-1.25-1,2.64,2.64,0,0,1-.42-1.44,4,4,0,0,1,.73-2.22,5.58,5.58,0,0,1,2.08-1.87,6.4,6.4,0,0,1,3.07-.75,5.94,5.94,0,0,1,2.05.38,7.7,7.7,0,0,1,2.19,1.35l.64.53.54-1.13-.3-.26a8,8,0,0,0-5.49-2,8.2,8.2,0,0,0-3.74,1,7.2,7.2,0,0,0-2.52,2.3,5,5,0,0,0-.89,2.8,3.44,3.44,0,0,0,.58,2,3.86,3.86,0,0,0,1.77,1.42,7,7,0,0,0,2.81.49h.35a8,8,0,0,0,2.85-.67,20,20,0,0,0,2.68-1.4c.82-.53,1.81-1.21,3-2l.53-.38c-.07.17-.13.33-.19.5a5.33,5.33,0,0,0-.21,1.57c0,.23,0,.46,0,.7a2.71,2.71,0,0,0-.75,0,8,8,0,0,0-3.87,1.61,8.52,8.52,0,0,0-2.69,3.54,6.44,6.44,0,0,0-.5,2.49,5.77,5.77,0,0,0,.35,2,4.42,4.42,0,0,0,1,1.63,3.43,3.43,0,0,0,1.67.93,5,5,0,0,0,3.69-.56,6.42,6.42,0,0,0,.65-.41,10,10,0,0,1-1.35,2.84,3.53,3.53,0,0,1-3,1.6c-1.56,0-2.59-.4-3.16-1.26a6.17,6.17,0,0,1-.94-3.37,9.43,9.43,0,0,1,.18-1.9l.13-.64h-1.32l-.09.43a10.36,10.36,0,0,0-.21,2.14,7,7,0,0,0,1.15,3.94c.82,1.21,2.28,1.82,4.34,1.81a5.26,5.26,0,0,0,4.62-2.29,11.72,11.72,0,0,0,1.75-5.41,12.89,12.89,0,0,0,1.73-3.29,11.06,11.06,0,0,0,.45-1.53,7.24,7.24,0,0,0,.22-1.52.76.76,0,0,1,0-.3,1.85,1.85,0,0,1,.44-.49,6.3,6.3,0,0,1,.55-.48,1.78,1.78,0,0,1,1-.45,1.58,1.58,0,0,1,.48.06,1.09,1.09,0,0,1,.64.41,2,2,0,0,1,.16.24,1.33,1.33,0,0,1,0,1c-.1.32-.22.64-.33,1,0-.09.16-.2.22-.28s.14-.21.2-.32a3.43,3.43,0,0,0,.32-.67,1.23,1.23,0,0,0,.11-.65,1.45,1.45,0,0,0-.25-.62A2.62,2.62,0,0,0,369.41,235.31Zm-5.27,4.52c-.11.31-.24.6-.37.89v-.11c0-.83,0-1.67-.1-2.51a5.36,5.36,0,0,0,.74-.29l.3-.14A10.78,10.78,0,0,1,364.14,239.83ZM360.19,245a3.49,3.49,0,0,1-2.64.48,1.75,1.75,0,0,1-1.14-.91,4.21,4.21,0,0,1-.49-2,6.44,6.44,0,0,1,.38-2.14,7.94,7.94,0,0,1,2.13-3.31,5.71,5.71,0,0,1,3-1.44h.15a1.34,1.34,0,0,1,.46.08l.07,0c0,.21.05.42.08.64l-.12-.5-1.19.37.08.45a1.71,1.71,0,0,0,1.34,1.53c0,.3,0,.6,0,.9a26.58,26.58,0,0,1-.32,4.33A7.22,7.22,0,0,1,360.19,245Z" transform="translate(-256 -32.02)"/><path d="M313.7,288.79a2.69,2.69,0,0,0-.19-.73q-.12-.36-2.57-4.14a8.22,8.22,0,0,1-1.83-4.65V167.57a33,33,0,0,1,.83-7.15q.82-3.71,2.36-8.81a2.52,2.52,0,0,0,0-1.55c-.16-.36-.44-.44-.84-.22a26.81,26.81,0,0,0-2.06,2.77q-3.47,5-5.45,7.31c-1.33,1.55-2.35,2.66-3,3.32q-1.4,1.44-3.15,3.21a4.16,4.16,0,0,0-.73,1.77,1.33,1.33,0,0,0,.6,1.11,16.15,16.15,0,0,1,1.94,1.66,8.91,8.91,0,0,1,1.08,5V279.16a8.56,8.56,0,0,1-1.87,4.76c-1.61,2.29-2.47,3.58-2.6,3.88a1.83,1.83,0,0,0-.18.88c0,.89.34,1.33,1,1.33a7.12,7.12,0,0,0,2.05-.11,44.85,44.85,0,0,1,5.82-.55,12.26,12.26,0,0,0,4.14,1,17.61,17.61,0,0,0,3.6.27c.73,0,1.09-.42,1.09-1.27A5.47,5.47,0,0,0,313.7,288.79ZM353.41,305a50.46,50.46,0,0,1-2.2-5.18q-1.72-4.66-3.41-11.21-1.2-4.65-4.16-18.71-1.93-9.3-3.86-16.39a94.21,94.21,0,0,0-4.1-12.18q9-6.85,15.07-21.25a89.93,89.93,0,0,0,6.75-35.21q0-22.92-10.32-38.31-9.94-14.84-24.19-14.83a40.29,40.29,0,0,0-14,2.1q-7.07,2.66-13.76,9.63a42.41,42.41,0,0,0-12,29.89,25.29,25.29,0,0,0,1.84,10.19q1.85,4.22,4.8,4.21,2.54,0,4.34-3.1a14.68,14.68,0,0,0,1.81-7.53,14.86,14.86,0,0,0-1-6c-.12-.59-.3-.89-.55-.89s-.42.45-.53,1.33a13.28,13.28,0,0,1-1.15,4.54,2.21,2.21,0,0,1-2,1.22c-1,0-1.69-.78-2.2-2.32a17.72,17.72,0,0,1-.75-5.43c0-.29,0-.89.06-1.77a25.53,25.53,0,0,1,3.38-12.07A34.39,34.39,0,0,1,298,147a27.12,27.12,0,0,1,10.87-6.53,40.4,40.4,0,0,1,10.25-1q12.56,0,20.58,14.4t8,35.87a82.22,82.22,0,0,1-4.57,27.57Q339,229.12,333,234.65a16.43,16.43,0,0,0-4.81-7.14,9.83,9.83,0,0,0-6.2-2.38,8,8,0,0,0-5.92,2.54,11.15,11.15,0,0,0-2.9,8.09q0,5.76,3,8.63a9,9,0,0,0,6.6,2.44,12,12,0,0,0,3.71-.61,22.76,22.76,0,0,0,3.78-1.6q1.28,5.74,2.42,15.5,1.62,13.72,2,16.49a95.09,95.09,0,0,0,3.5,15.39q4,11.52,9.47,17.83A24.93,24.93,0,0,0,350,312.2a17,17,0,0,0,9.25,4.48l.47-4.92C357.48,311.15,355.38,308.88,353.41,305ZM326,240.3a7.24,7.24,0,0,1-3,.78,6.07,6.07,0,0,1-3.61-1,5,5,0,0,1-1.81-4.32,5.13,5.13,0,0,1,1.33-3.77,4.14,4.14,0,0,1,3-1.32,5.76,5.76,0,0,1,4.16,2.1,11.26,11.26,0,0,1,2.71,5.43A7.87,7.87,0,0,1,326,240.3Z" transform="translate(-256 -32.02)"/><rect class="cls-1" x="2" y="60.98" width="209" height="344" rx="74.47"/></svg>